<?xml version="1.0" encoding="UTF-8"?>
<!-- Created with Inkscape (http://www.inkscape.org/) -->
<svg width="50" height="50" version="1.1" viewBox="0 0 13.229 13.229" xmlns="http://www.w3.org/2000/svg">
 <g display="none">
  <g transform="matrix(.020969 0 0 .020969 6.6609 6.6609)" fill="none" stroke-width="3.04">
   <path d="m0 288c126.2 0 196.36 0 242.18-45.822 45.822-45.822 45.822-115.98 45.822-242.18s0-196.36-45.822-242.18c-45.822-45.822-115.98-45.822-242.18-45.822s-196.36 0-242.18 45.822c-45.822 45.822-45.822 115.98-45.822 242.18s0 196.36 45.822 242.18c45.822 45.822 115.98 45.822 242.18 45.822z" fill="#fefefe" stroke="#00f" stroke-opacity=".75"/>
  </g>
 </g>
 <g display="none">
  <rect width="13.229" height="13.229" display="none" fill="#fefefe" stroke-width=".026458"/>
 </g>
 <g>
  <path d="m7.4441 2.2306v6.3083l0.79802 1.1132v-3.3397h2.7931v2.2265l0.79802 1.1132v-6.3083l-0.79802-1.1132v3.3397h-2.7931v-2.2265z" fill="#4f469e"/>
 </g>
 <g>
  <path d="m3.1348 3.1298h6.6501l-0.66502 0.78863h-2.2167l1e-7 6.1119-0.88669 0.59147v-6.7033h-2.2167z" fill="#668ad3"/>
 </g>
 <g>
  <path d="m1.2385 3.4396 2.8539 5.0275v2.6335h0.87813v-2.6335l1.7666-3.1123h-0.86398l-1.3416 2.3941-2.4149-4.3093z" fill="#46abf6"/>
 </g>
</svg>
